<svg width="898" height="108" viewBox="0 0 898 108" fill="none" xmlns="http://www.w3.org/2000/svg">
<g clip-path="url(#clip0_12094_4691)">
<path fill-rule="evenodd" clip-rule="evenodd" d="M83.0558 19.0173C83.4065 19.609 83.5926 20.2847 83.5943 20.9735L83.7396 77.1165C83.7432 78.5107 82.9951 79.7972 81.7851 80.4777L33.8346 107.446C31.9941 108.481 29.6677 107.82 28.6384 105.969C28.3199 105.396 28.1527 104.751 28.1527 104.095V80.9466C28.1527 79.5809 28.8741 78.318 30.0472 77.6299L54.0545 63.5493C55.2276 62.8612 55.949 61.5983 55.949 60.2325V32.9789C55.949 31.6263 56.6568 30.3735 57.8121 29.6808L77.821 17.6854C79.6323 16.5995 81.976 17.1959 83.0558 19.0173ZM27.5138 18.9654C27.8489 19.5491 28.0253 20.2112 28.0253 20.8852V72.0906C28.0253 74.2112 26.3159 75.9302 24.2071 75.9302C23.5369 75.9302 22.8785 75.7528 22.298 75.4158L2.1586 63.7229C0.977253 63.037 0.249512 61.7694 0.249512 60.3977V32.5781C0.249512 31.2064 0.977253 29.9388 2.1586 29.2529L22.298 17.56C24.1242 16.4997 26.4594 17.1289 27.5138 18.9654Z" fill="black"/>
</g>
<path d="M140.575 66.6816L140.647 65.5189V60.1417C140.647 59.0517 141.665 58.3251 142.464 58.3251H148.786C148.931 58.3251 149.149 58.3251 149.295 58.3977C149.295 58.2524 149.222 58.1797 149.295 58.0344L149.367 56.7991V34.2729C149.367 33.1829 150.384 32.4563 151.184 32.4563H157.36C158.45 32.4563 159.177 33.4736 159.177 34.2729V58.1071C159.177 59.1971 158.087 59.9237 157.36 59.9237H151.111C150.893 59.9237 150.675 59.9237 150.53 59.851C150.53 59.9237 150.602 60.069 150.602 60.1417V66.7542C150.602 67.8442 149.513 68.5708 148.786 68.5708H142.391C142.173 68.5708 141.955 68.5708 141.81 68.4982C141.81 68.5708 141.883 68.7162 141.883 68.8615V75.4014C141.883 76.4913 140.793 77.218 140.066 77.218H133.817C132.654 77.218 132 76.2007 132 75.4014V68.7162C132 68.6435 132 68.5708 132 68.4982C131.855 68.5708 131.71 68.5708 131.564 68.5708H130.184H125.242C124.08 68.5708 123.426 67.5535 123.426 66.7542V59.9964C123.426 59.9964 123.426 59.9237 123.426 59.851C123.208 59.9237 123.062 59.9237 122.917 59.9237H121.609H116.595C115.433 59.9237 114.779 58.9064 114.779 58.1071V34.2729C114.779 33.1829 115.796 32.4563 116.595 32.4563H122.772C123.862 32.4563 124.588 33.4736 124.588 34.2729V56.7264L124.734 57.8891C124.734 58.0344 124.734 58.1797 124.734 58.3251C124.952 58.2524 125.17 58.1797 125.388 58.2524L126.26 58.3251H131.419C132.509 58.3251 133.236 59.3424 133.236 60.1417V65.4462L133.308 66.5362C133.381 66.6816 133.381 66.8269 133.308 66.9722C133.526 66.8996 133.744 66.8996 133.962 66.8996L134.907 67.0449H140.066C140.211 67.0449 140.429 67.0449 140.575 67.1175C140.575 66.9722 140.575 66.8269 140.575 66.6816ZM209.234 77.218H168.468C167.306 77.218 166.652 76.2007 166.652 75.4014V68.8615C166.652 67.7715 167.669 67.0449 168.468 67.0449H183.728L183.873 65.5189V42.6294H182.057H168.468C167.306 42.6294 166.652 41.6121 166.652 40.8128V34.2729C166.652 33.1829 167.669 32.4563 168.468 32.4563H209.234C210.324 32.4563 211.05 33.4736 211.05 34.2729V40.8128C211.05 41.9028 209.96 42.6294 209.234 42.6294H193.756V65.4462L193.901 66.8269L195.427 67.0449H209.234C210.324 67.0449 211.05 68.0622 211.05 68.8615V75.4014C211.05 76.4913 209.96 77.218 209.234 77.218ZM253.114 48.152V42.6294H251.297H228.335V48.0793L228.48 49.4599L230.006 49.6779H252.968L253.114 48.152ZM252.678 59.9237H251.297H228.335V75.4014C228.335 76.4913 227.245 77.218 226.518 77.218H220.342C219.179 77.218 218.525 76.2007 218.525 75.4014V34.2729C218.525 33.1829 219.542 32.4563 220.342 32.4563H252.532C253.622 32.4563 254.349 33.4736 254.349 34.2729V39.5048L254.494 40.8854L256.02 41.1034H261.107C262.197 41.1034 262.923 42.1208 262.923 42.9201V49.4599C262.923 50.5499 261.833 51.2766 261.107 51.2766H254.349V56.7264L254.494 57.8891C254.494 57.9617 254.494 58.1071 254.494 58.2524C254.712 58.1797 254.93 58.1797 255.076 58.1797L256.02 58.3251H261.107C262.197 58.3251 262.923 59.3424 262.923 60.1417V75.4014C262.923 76.4913 261.833 77.218 261.107 77.218H254.93C253.768 77.218 253.114 76.2007 253.114 75.4014V59.9964C253.114 59.9964 253.114 59.9237 253.114 59.851C252.968 59.9237 252.823 59.9237 252.678 59.9237ZM312.98 42.6294H297.502V75.4014C297.502 76.4913 296.412 77.218 295.686 77.218H289.437C288.274 77.218 287.62 76.2007 287.62 75.4014V42.6294H285.803H272.215C271.052 42.6294 270.398 41.6121 270.398 40.8128V34.2729C270.398 33.1829 271.416 32.4563 272.215 32.4563H312.98C314.07 32.4563 314.797 33.4736 314.797 34.2729V40.8128C314.797 41.9028 313.707 42.6294 312.98 42.6294ZM356.787 66.6816L356.86 65.5189V34.2729C356.86 33.1829 357.877 32.4563 358.677 32.4563H364.853C365.943 32.4563 366.67 33.4736 366.67 34.2729V66.7542C366.67 67.8442 365.58 68.5708 364.853 68.5708H358.604C358.386 68.5708 358.168 68.5708 358.023 68.4982C358.023 68.5708 358.095 68.7162 358.095 68.8615V75.4014C358.095 76.4913 357.005 77.218 356.279 77.218H332.735C331.573 77.218 330.919 76.2007 330.919 75.4014V68.7162C330.919 68.6435 330.919 68.5708 330.919 68.4982C330.701 68.5708 330.555 68.5708 330.41 68.5708H329.102H324.088C322.925 68.5708 322.272 67.5535 322.272 66.7542V34.2729C322.272 33.1829 323.289 32.4563 324.088 32.4563H330.265C331.355 32.4563 332.081 33.4736 332.081 34.2729V65.4462L332.154 66.5362C332.227 66.6816 332.227 66.8269 332.154 67.0449C332.445 66.9722 332.663 66.8996 332.881 66.9722L333.753 67.0449H356.279C356.424 67.0449 356.642 67.0449 356.787 67.1175C356.787 66.9722 356.787 66.8269 356.787 66.6816ZM408.733 48.152V42.6294H406.917H383.955V48.0793L384.1 49.4599L385.626 49.6779H408.588L408.733 48.152ZM416.726 77.218H410.55C409.387 77.218 408.733 76.2007 408.733 75.4014V59.9237H406.917H383.955V75.4014C383.955 76.4913 382.865 77.218 382.138 77.218H375.961C374.799 77.218 374.145 76.2007 374.145 75.4014V42.9201C374.145 41.8301 375.162 41.1034 375.961 41.1034H382.647L382.792 39.5775V34.2729C382.792 33.1829 383.809 32.4563 384.609 32.4563H408.152C409.242 32.4563 409.969 33.4736 409.969 34.2729V39.5048L410.114 40.8854L411.64 41.1034H416.726C417.816 41.1034 418.543 42.1208 418.543 42.9201V75.4014C418.543 76.4913 417.453 77.218 416.726 77.218ZM468.6 77.218H427.835C426.672 77.218 426.018 76.2007 426.018 75.4014V34.2729C426.018 33.1829 427.035 32.4563 427.835 32.4563H434.011C435.101 32.4563 435.828 33.4736 435.828 34.2729V65.4462L435.973 66.8269L437.499 67.0449H468.6C469.69 67.0449 470.416 68.0622 470.416 68.8615V75.4014C470.416 76.4913 469.326 77.218 468.6 77.218ZM580.578 42.6294H547.806V48.0793L547.951 49.4599L549.477 49.6779H572.003C573.093 49.6779 573.82 50.6952 573.82 51.4945V58.1071C573.82 59.1971 572.73 59.9237 572.003 59.9237H547.806V75.4014C547.806 76.4913 546.716 77.218 545.989 77.218H539.813C538.65 77.218 537.996 76.2007 537.996 75.4014V34.2729C537.996 33.1829 539.013 32.4563 539.813 32.4563H580.578C581.668 32.4563 582.394 33.4736 582.394 34.2729V40.8128C582.394 41.9028 581.304 42.6294 580.578 42.6294ZM632.451 77.218H591.686C590.523 77.218 589.869 76.2007 589.869 75.4014V68.8615C589.869 67.7715 590.887 67.0449 591.686 67.0449H606.946L607.091 65.5189V42.6294H605.274H591.686C590.523 42.6294 589.869 41.6121 589.869 40.8128V34.2729C589.869 33.1829 590.887 32.4563 591.686 32.4563H632.451C633.541 32.4563 634.268 33.4736 634.268 34.2729V40.8128C634.268 41.9028 633.178 42.6294 632.451 42.6294H616.973V65.4462L617.119 66.8269L618.645 67.0449H632.451C633.541 67.0449 634.268 68.0622 634.268 68.8615V75.4014C634.268 76.4913 633.178 77.218 632.451 77.218ZM658.528 51.2766H657.147H651.552V75.4014C651.552 76.4913 650.462 77.218 649.736 77.218H643.559C642.396 77.218 641.742 76.2007 641.742 75.4014V34.2729C641.742 33.1829 642.76 32.4563 643.559 32.4563H649.736C650.826 32.4563 651.552 33.4736 651.552 34.2729V39.5048L651.698 40.8854L653.224 41.1034H658.383C659.473 41.1034 660.199 42.1208 660.199 42.9201V48.0793L660.345 49.2419C660.345 49.3146 660.345 49.4599 660.345 49.6053C660.563 49.5326 660.781 49.5326 660.926 49.5326L661.871 49.6779H667.03C668.12 49.6779 668.847 50.6952 668.847 51.4945V56.7264L668.992 57.8891C668.992 57.9617 668.992 58.1071 668.992 58.2524C669.21 58.1797 669.428 58.1797 669.573 58.1797L670.518 58.3251H676.186L676.331 56.7991V34.2729C676.331 33.1829 677.348 32.4563 678.148 32.4563H684.324C685.414 32.4563 686.141 33.4736 686.141 34.2729V75.4014C686.141 76.4913 685.051 77.218 684.324 77.218H678.148C676.985 77.218 676.331 76.2007 676.331 75.4014V68.5708H674.514H669.428C668.265 68.5708 667.611 67.5535 667.611 66.7542V59.9964C667.611 59.9964 667.611 59.9237 667.611 59.851C667.466 59.9237 667.321 59.9237 667.175 59.9237H665.795H660.781C659.618 59.9237 658.964 58.9064 658.964 58.1071V51.3492C658.964 51.3492 658.964 51.2766 658.964 51.2039C658.819 51.2766 658.673 51.2766 658.528 51.2766ZM728.204 48.152V42.6294H726.388H703.425V48.0793L703.571 49.4599L705.097 49.6779H728.059L728.204 48.152ZM736.197 77.218H730.021C728.858 77.218 728.204 76.2007 728.204 75.4014V59.9237H726.388H703.425V75.4014C703.425 76.4913 702.335 77.218 701.609 77.218H695.432C694.27 77.218 693.616 76.2007 693.616 75.4014V42.9201C693.616 41.8301 694.633 41.1034 695.432 41.1034H702.118L702.263 39.5775V34.2729C702.263 33.1829 703.28 32.4563 704.079 32.4563H727.623C728.713 32.4563 729.44 33.4736 729.44 34.2729V39.5048L729.585 40.8854L731.111 41.1034H736.197C737.287 41.1034 738.014 42.1208 738.014 42.9201V75.4014C738.014 76.4913 736.924 77.218 736.197 77.218ZM762.275 51.2766H760.894H755.299V75.4014C755.299 76.4913 754.209 77.218 753.482 77.218H747.306C746.143 77.218 745.489 76.2007 745.489 75.4014V34.2729C745.489 33.1829 746.506 32.4563 747.306 32.4563H753.482C754.572 32.4563 755.299 33.4736 755.299 34.2729V39.5048L755.444 40.8854L756.97 41.1034H762.129C763.219 41.1034 763.946 42.1208 763.946 42.9201V48.0793L764.091 49.2419C764.091 49.3146 764.091 49.4599 764.091 49.6053C764.309 49.5326 764.527 49.5326 764.672 49.5326L765.617 49.6779H770.776C771.866 49.6779 772.593 50.6952 772.593 51.4945V56.7264L772.738 57.8891C772.738 57.9617 772.738 58.1071 772.738 58.2524C772.956 58.1797 773.174 58.1797 773.32 58.1797L774.264 58.3251H779.932L780.077 56.7991V34.2729C780.077 33.1829 781.095 32.4563 781.894 32.4563H788.071C789.161 32.4563 789.887 33.4736 789.887 34.2729V75.4014C789.887 76.4913 788.797 77.218 788.071 77.218H781.894C780.731 77.218 780.077 76.2007 780.077 75.4014V68.5708H778.261H773.174C772.012 68.5708 771.358 67.5535 771.358 66.7542V59.9964C771.358 59.9964 771.358 59.9237 771.358 59.851C771.212 59.9237 771.067 59.9237 770.922 59.9237H769.541H764.527C763.365 59.9237 762.711 58.9064 762.711 58.1071V51.3492C762.711 51.3492 762.711 51.2766 762.711 51.2039C762.565 51.2766 762.42 51.2766 762.275 51.2766ZM831.878 66.6816L831.951 65.5189V60.1417C831.951 59.0517 832.968 58.3251 833.767 58.3251H839.944C841.034 58.3251 841.761 59.3424 841.761 60.1417V66.7542C841.761 67.8442 840.671 68.5708 839.944 68.5708H833.695C833.477 68.5708 833.259 68.5708 833.113 68.4982C833.113 68.5708 833.186 68.7162 833.186 68.8615V75.4014C833.186 76.4913 832.096 77.218 831.369 77.218H807.826C806.663 77.218 806.009 76.2007 806.009 75.4014V68.7162C806.009 68.6435 806.009 68.5708 806.009 68.4982C805.791 68.5708 805.646 68.5708 805.501 68.5708H804.193H799.179C798.016 68.5708 797.362 67.5535 797.362 66.7542V42.9201C797.362 41.8301 798.379 41.1034 799.179 41.1034H805.355C805.573 41.1034 805.791 41.1761 805.937 41.2488C805.937 41.0308 805.937 40.8854 805.937 40.7401L806.009 39.5775V34.2729C806.009 33.1829 807.027 32.4563 807.826 32.4563H831.369C832.459 32.4563 833.186 33.4736 833.186 34.2729V39.5048L833.259 40.5948C833.331 40.7401 833.331 40.8854 833.259 41.0308C833.477 40.9581 833.695 40.9581 833.913 40.9581L834.857 41.1034H839.944C841.034 41.1034 841.761 42.1208 841.761 42.9201V49.4599C841.761 50.5499 840.671 51.2766 839.944 51.2766H833.767C832.605 51.2766 831.951 50.2592 831.951 49.4599V42.7747C831.951 42.7021 831.951 42.6294 831.951 42.5567C831.805 42.6294 831.66 42.6294 831.515 42.6294H830.134H807.753C807.463 42.6294 807.245 42.5567 807.099 42.4841C807.099 42.6294 807.172 42.7747 807.172 42.9201V65.4462L807.245 66.5362C807.317 66.6816 807.317 66.8269 807.245 67.0449C807.535 66.9722 807.753 66.8996 807.971 66.9722L808.843 67.0449H831.369C831.515 67.0449 831.733 67.0449 831.878 67.1175C831.878 66.9722 831.878 66.8269 831.878 66.6816ZM891.817 77.218H851.052C849.889 77.218 849.235 76.2007 849.235 75.4014V34.2729C849.235 33.1829 850.253 32.4563 851.052 32.4563H891.817C892.907 32.4563 893.634 33.4736 893.634 34.2729V40.8128C893.634 41.9028 892.544 42.6294 891.817 42.6294H859.045V48.0793L859.19 49.4599L860.716 49.6779H883.243C884.333 49.6779 885.059 50.6952 885.059 51.4945V58.1071C885.059 59.1971 883.969 59.9237 883.243 59.9237H859.045V65.4462L859.19 66.8269L860.716 67.0449H891.817C892.907 67.0449 893.634 68.0622 893.634 68.8615V75.4014C893.634 76.4913 892.544 77.218 891.817 77.218Z" fill="black"/>
<defs>
<clipPath id="clip0_12094_4691">
<rect width="84" height="91" fill="white" transform="translate(0 17)"/>
</clipPath>
</defs>
</svg>
