<svg width="1440" height="439" viewBox="0 0 1440 439" fill="none" xmlns="http://www.w3.org/2000/svg">
<g clip-path="url(#clip0_12094_4692)">
<rect width="1440" height="439" fill="white"/>
<path d="M57.8567 0.150391L-29.2144 18.4811Z" fill="black"/>
<path d="M57.8567 0.150391L-29.2144 18.4811" stroke="black" stroke-width="2.29134"/>
<path d="M57.8567 0.150391L-29.2144 18.4811" stroke="black" stroke-width="2.29134"/>
<path d="M-25.2046 0H1464.17Z" fill="black"/>
<path d="M-25.2046 0H1464.17" stroke="black" stroke-width="2.29134"/>
<path d="M-25.2046 0H1464.17" stroke="black" stroke-width="2.29134"/>
<path d="M-25.2046 5.72852H1464.17Z" fill="black"/>
<path d="M-25.2046 5.72852H1464.17" stroke="black" stroke-width="2.29134"/>
<path d="M-25.2046 5.72852H1464.17" stroke="black" stroke-width="2.29134"/>
<path d="M-25.2046 11.457H1464.17Z" fill="black"/>
<path d="M-25.2046 11.457H1464.17" stroke="black" stroke-width="2.29134"/>
<path d="M-25.2046 11.457H1464.17" stroke="black" stroke-width="2.29134"/>
<path d="M-25.2046 17.1855H1464.17Z" fill="black"/>
<path d="M-25.2046 17.1855H1464.17" stroke="black" stroke-width="2.29134"/>
<path d="M-25.2046 17.1855H1464.17" stroke="black" stroke-width="2.29134"/>
<path d="M-25.2046 22.9141H1464.17Z" fill="black"/>
<path d="M-25.2046 22.9141H1464.17" stroke="black" stroke-width="2.29134"/>
<path d="M-25.2046 22.9141H1464.17" stroke="black" stroke-width="2.29134"/>
<path d="M-25.2046 28.6426H1464.17Z" fill="black"/>
<path d="M-25.2046 28.6426H1464.17" stroke="black" stroke-width="2.29134"/>
<path d="M-25.2046 28.6426H1464.17" stroke="black" stroke-width="2.29134"/>
<path d="M-25.2046 36.6621H1464.17Z" fill="black"/>
<path d="M-25.2046 36.6621H1464.17" stroke="black" stroke-width="2.29134"/>
<path d="M-25.2046 36.6621H1464.17" stroke="black" stroke-width="2.29134"/>
<path d="M-25.2046 44.6816H1464.17Z" fill="black"/>
<path d="M-25.2046 44.6816H1464.17" stroke="black" stroke-width="2.29134"/>
<path d="M-25.2046 44.6816H1464.17" stroke="black" stroke-width="2.29134"/>
<path d="M-25.2046 52.7012H1464.17Z" fill="black"/>
<path d="M-25.2046 52.7012H1464.17" stroke="black" stroke-width="2.29134"/>
<path d="M-25.2046 52.7012H1464.17" stroke="black" stroke-width="2.29134"/>
<path d="M-25.2046 63.0117H1464.17Z" fill="black"/>
<path d="M-25.2046 63.0117H1464.17" stroke="black" stroke-width="2.29134"/>
<path d="M-25.2046 63.0117H1464.17" stroke="black" stroke-width="2.29134"/>
<path d="M-25.2046 73.3223H1464.17Z" fill="black"/>
<path d="M-25.2046 73.3223H1464.17" stroke="black" stroke-width="2.29134"/>
<path d="M-25.2046 73.3223H1464.17" stroke="black" stroke-width="2.29134"/>
<path d="M-25.2046 85.9258H1464.17Z" fill="black"/>
<path d="M-25.2046 85.9258H1464.17" stroke="black" stroke-width="2.29134"/>
<path d="M-25.2046 85.9258H1464.17" stroke="black" stroke-width="2.29134"/>
<path d="M-25.2046 98.5273H1464.17Z" fill="black"/>
<path d="M-25.2046 98.5273H1464.17" stroke="black" stroke-width="2.29134"/>
<path d="M-25.2046 98.5273H1464.17" stroke="black" stroke-width="2.29134"/>
<path d="M-25.2046 115.713H1464.17Z" fill="black"/>
<path d="M-25.2046 115.713H1464.17" stroke="black" stroke-width="2.29134"/>
<path d="M-25.2046 115.713H1464.17" stroke="black" stroke-width="2.29134"/>
<path d="M-25.2046 132.898H1464.17Z" fill="black"/>
<path d="M-25.2046 132.898H1464.17" stroke="black" stroke-width="2.29134"/>
<path d="M-25.2046 132.898H1464.17" stroke="black" stroke-width="2.29134"/>
<path d="M-25.2046 153.52H1464.17Z" fill="black"/>
<path d="M-25.2046 153.52H1464.17" stroke="black" stroke-width="2.29134"/>
<path d="M-25.2046 153.52H1464.17" stroke="black" stroke-width="2.29134"/>
<path d="M-25.2046 178.725H1464.17Z" fill="black"/>
<path d="M-25.2046 178.725H1464.17" stroke="black" stroke-width="2.29134"/>
<path d="M-25.2046 178.725H1464.17" stroke="black" stroke-width="2.29134"/>
<path d="M-22.9131 209.658H1466.46Z" fill="black"/>
<path d="M-22.9131 209.658H1466.46" stroke="black" stroke-width="2.29134"/>
<path d="M-22.9131 209.658H1466.46" stroke="black" stroke-width="2.29134"/>
<path d="M-22.9131 246.32H1466.46Z" fill="black"/>
<path d="M-22.9131 246.32H1466.46" stroke="black" stroke-width="2.29134"/>
<path d="M-22.9131 246.32H1466.46" stroke="black" stroke-width="2.29134"/>
<path d="M-19.4761 293.293H1469.9Z" fill="black"/>
<path d="M-19.4761 293.293H1469.9" stroke="black" stroke-width="2.29134"/>
<path d="M-19.4761 293.293H1469.9" stroke="black" stroke-width="2.29134"/>
<path d="M-16.0391 352.867H1473.33Z" fill="black"/>
<path d="M-16.0391 352.867H1473.33" stroke="black" stroke-width="2.29134"/>
<path d="M-16.0391 352.867H1473.33" stroke="black" stroke-width="2.29134"/>
<path d="M-16.0391 431.918H1473.33" stroke="black" stroke-width="2.29134"/>
<path d="M120.186 0.150391L-33.8423 33.4793Z" fill="black"/>
<path d="M120.186 0.150391L-33.8423 33.4793" stroke="black" stroke-width="2.29134"/>
<path d="M120.186 0.150391L-33.8423 33.4793" stroke="black" stroke-width="2.29134"/>
<path d="M185.448 0.150391L-43.6538 55.619Z" fill="black"/>
<path d="M185.448 0.150391L-43.6538 55.619" stroke="black" stroke-width="2.29134"/>
<path d="M185.448 0.150391L-43.6538 55.619" stroke="black" stroke-width="2.29134"/>
<path d="M254.376 0.150391L-33.8423 78.4677Z" fill="black"/>
<path d="M254.376 0.150391L-33.8423 78.4677" stroke="black" stroke-width="2.29134"/>
<path d="M254.376 0.150391L-33.8423 78.4677" stroke="black" stroke-width="2.29134"/>
<path d="M321.2 0.150391L-43.6538 113.774Z" fill="black"/>
<path d="M321.2 0.150391L-43.6538 113.774" stroke="black" stroke-width="2.29134"/>
<path d="M321.2 0.150391L-43.6538 113.774" stroke="black" stroke-width="2.29134"/>
<path d="M386.463 0.150391L-43.6538 158.82Z" fill="black"/>
<path d="M386.463 0.150391L-43.6538 158.82" stroke="black" stroke-width="2.29134"/>
<path d="M386.463 0.150391L-43.6538 158.82" stroke="black" stroke-width="2.29134"/>
<path d="M452.292 0.150391L-53 234.793Z" fill="black"/>
<path d="M452.292 0.150391L-53 234.793" stroke="black" stroke-width="2.29134"/>
<path d="M452.292 0.150391L-53 234.793" stroke="black" stroke-width="2.29134"/>
<path d="M519.967 0.150391L-43.6538 347.301Z" fill="black"/>
<path d="M519.967 0.150391L-43.6538 347.301" stroke="black" stroke-width="2.29134"/>
<path d="M519.967 0.150391L-43.6538 347.301" stroke="black" stroke-width="2.29134"/>
<path d="M587.287 0.150391L-11.1528 553.018Z" fill="black"/>
<path d="M587.287 0.150391L-11.1528 553.018" stroke="black" stroke-width="2.29134"/>
<path d="M587.287 0.150391L-11.1528 553.018" stroke="black" stroke-width="2.29134"/>
<path d="M652.725 0.150391L350.692 559.41Z" fill="black"/>
<path d="M652.725 0.150391L350.692 559.41" stroke="black" stroke-width="2.29134"/>
<path d="M652.725 0.150391L350.692 559.41" stroke="black" stroke-width="2.29134"/>
<path d="M719.482 0.150391V553.018Z" fill="black"/>
<path d="M719.482 0.150391V553.018" stroke="black" stroke-width="2.29134"/>
<path d="M719.482 0.150391V553.018" stroke="black" stroke-width="2.29134"/>
<path d="M1381.38 0.150391L1468.45 18.4811" stroke="black" stroke-width="2.29134"/>
<path d="M1319.05 0.150391L1473.08 33.4793" stroke="black" stroke-width="2.29134"/>
<path d="M1253.79 0.150391L1482.89 55.619" stroke="black" stroke-width="2.29134"/>
<path d="M1184.86 0.150391L1473.08 78.4677" stroke="black" stroke-width="2.29134"/>
<path d="M1118.04 0.150391L1482.89 113.774" stroke="black" stroke-width="2.29134"/>
<path d="M1052.78 0.150391L1482.89 158.82" stroke="black" stroke-width="2.29134"/>
<path d="M986.946 0.150391L1492.24 234.793" stroke="black" stroke-width="2.29134"/>
<path d="M919.27 0.150391L1482.89 347.301" stroke="black" stroke-width="2.29134"/>
<path d="M851.951 0.150391L1450.39 553.018" stroke="black" stroke-width="2.29134"/>
<path d="M786.513 0.150391L1088.55 559.41" stroke="black" stroke-width="2.29134"/>
<path d="M719.756 0.150391V553.018" stroke="black" stroke-width="2.29134"/>
</g>
<defs>
<clipPath id="clip0_12094_4692">
<rect width="1440" height="439" fill="white"/>
</clipPath>
</defs>
</svg>
